<mxfile host="app.diagrams.net" modified="2022-09-29T14:57:14.253Z" agent="5.0 (Windows NT 10.0; Win64; x64) AppleWebKit/537.36 (KHTML, like Gecko) Chrome/105.0.0.0 Safari/537.36" etag="H09VzLqo2U87lLvj7Pw9" version="20.3.7" type="github">
  <diagram id="6kdRJeLe18AOqeQBxG6J" name="Page-1">
    <mxGraphModel dx="1278" dy="489" grid="1" gridSize="10" guides="1" tooltips="1" connect="1" arrows="1" fold="1" page="1" pageScale="1" pageWidth="850" pageHeight="1100" math="0" shadow="0">
      <root>
        <mxCell id="0" />
        <mxCell id="1" parent="0" />
        <mxCell id="0PZKCsLCNUDsqm-1jIu7-4" value="" style="shape=table;startSize=0;container=1;collapsible=0;childLayout=tableLayout;" vertex="1" parent="1">
          <mxGeometry x="90" y="166" width="300" height="360" as="geometry" />
        </mxCell>
        <mxCell id="0PZKCsLCNUDsqm-1jIu7-5" value="" style="shape=tableRow;horizontal=0;startSize=0;swimlaneHead=0;swimlaneBody=0;top=0;left=0;bottom=0;right=0;collapsible=0;dropTarget=0;fillColor=none;points=[[0,0.5],[1,0.5]];portConstraint=eastwest;" vertex="1" parent="0PZKCsLCNUDsqm-1jIu7-4">
          <mxGeometry width="300" height="360" as="geometry" />
        </mxCell>
        <mxCell id="0PZKCsLCNUDsqm-1jIu7-6" value="Graphical Representation" style="shape=partialRectangle;html=1;whiteSpace=wrap;connectable=0;overflow=hidden;fillColor=none;top=0;left=0;bottom=0;right=0;pointerEvents=1;" vertex="1" parent="0PZKCsLCNUDsqm-1jIu7-5">
          <mxGeometry width="128" height="360" as="geometry">
            <mxRectangle width="128" height="360" as="alternateBounds" />
          </mxGeometry>
        </mxCell>
        <mxCell id="0PZKCsLCNUDsqm-1jIu7-7" value="Word Documentation" style="shape=partialRectangle;html=1;whiteSpace=wrap;connectable=0;overflow=hidden;fillColor=none;top=0;left=0;bottom=0;right=0;pointerEvents=1;" vertex="1" parent="0PZKCsLCNUDsqm-1jIu7-5">
          <mxGeometry x="128" width="172" height="360" as="geometry">
            <mxRectangle width="172" height="360" as="alternateBounds" />
          </mxGeometry>
        </mxCell>
        <mxCell id="0PZKCsLCNUDsqm-1jIu7-8" value="UI" style="text;html=1;strokeColor=none;fillColor=none;align=center;verticalAlign=middle;whiteSpace=wrap;rounded=0;" vertex="1" parent="1">
          <mxGeometry x="90" y="80" width="60" height="30" as="geometry" />
        </mxCell>
        <mxCell id="0PZKCsLCNUDsqm-1jIu7-9" value="" style="shape=table;startSize=0;container=1;collapsible=0;childLayout=tableLayout;" vertex="1" parent="1">
          <mxGeometry x="480" y="80" width="530" height="530" as="geometry" />
        </mxCell>
        <mxCell id="0PZKCsLCNUDsqm-1jIu7-10" value="" style="shape=tableRow;horizontal=0;startSize=0;swimlaneHead=0;swimlaneBody=0;top=0;left=0;bottom=0;right=0;collapsible=0;dropTarget=0;fillColor=none;points=[[0,0.5],[1,0.5]];portConstraint=eastwest;" vertex="1" parent="0PZKCsLCNUDsqm-1jIu7-9">
          <mxGeometry width="530" height="530" as="geometry" />
        </mxCell>
        <mxCell id="0PZKCsLCNUDsqm-1jIu7-11" value="" style="shape=partialRectangle;html=1;whiteSpace=wrap;connectable=0;overflow=hidden;fillColor=none;top=0;left=0;bottom=0;right=0;pointerEvents=1;" vertex="1" parent="0PZKCsLCNUDsqm-1jIu7-10">
          <mxGeometry width="530" height="530" as="geometry">
            <mxRectangle width="530" height="530" as="alternateBounds" />
          </mxGeometry>
        </mxCell>
        <mxCell id="0PZKCsLCNUDsqm-1jIu7-12" value="" style="shape=flexArrow;endArrow=classic;html=1;rounded=0;exitX=1;exitY=0.5;exitDx=0;exitDy=0;entryX=0;entryY=0.5;entryDx=0;entryDy=0;" edge="1" parent="1" source="0PZKCsLCNUDsqm-1jIu7-5" target="0PZKCsLCNUDsqm-1jIu7-10">
          <mxGeometry width="50" height="50" relative="1" as="geometry">
            <mxPoint x="400" y="250" as="sourcePoint" />
            <mxPoint x="450" y="200" as="targetPoint" />
          </mxGeometry>
        </mxCell>
        <mxCell id="0PZKCsLCNUDsqm-1jIu7-14" value="Document API" style="text;html=1;strokeColor=none;fillColor=none;align=center;verticalAlign=middle;whiteSpace=wrap;rounded=0;" vertex="1" parent="1">
          <mxGeometry x="770" y="80" width="60" height="30" as="geometry" />
        </mxCell>
        <mxCell id="0PZKCsLCNUDsqm-1jIu7-24" style="edgeStyle=orthogonalEdgeStyle;rounded=0;orthogonalLoop=1;jettySize=auto;html=1;entryX=0;entryY=0.5;entryDx=0;entryDy=0;entryPerimeter=0;exitX=0.5;exitY=0;exitDx=0;exitDy=0;exitPerimeter=0;" edge="1" parent="1" source="0PZKCsLCNUDsqm-1jIu7-15" target="0PZKCsLCNUDsqm-1jIu7-21">
          <mxGeometry relative="1" as="geometry" />
        </mxCell>
        <mxCell id="0PZKCsLCNUDsqm-1jIu7-26" style="edgeStyle=orthogonalEdgeStyle;rounded=0;orthogonalLoop=1;jettySize=auto;html=1;entryX=0;entryY=0.5;entryDx=0;entryDy=0;entryPerimeter=0;" edge="1" parent="1" source="0PZKCsLCNUDsqm-1jIu7-15" target="0PZKCsLCNUDsqm-1jIu7-16">
          <mxGeometry relative="1" as="geometry" />
        </mxCell>
        <mxCell id="0PZKCsLCNUDsqm-1jIu7-27" style="edgeStyle=orthogonalEdgeStyle;rounded=0;orthogonalLoop=1;jettySize=auto;html=1;entryX=0;entryY=0.5;entryDx=0;entryDy=0;entryPerimeter=0;" edge="1" parent="1" source="0PZKCsLCNUDsqm-1jIu7-15" target="0PZKCsLCNUDsqm-1jIu7-17">
          <mxGeometry relative="1" as="geometry" />
        </mxCell>
        <mxCell id="0PZKCsLCNUDsqm-1jIu7-29" style="edgeStyle=orthogonalEdgeStyle;rounded=0;orthogonalLoop=1;jettySize=auto;html=1;entryX=0;entryY=0.5;entryDx=0;entryDy=0;entryPerimeter=0;" edge="1" parent="1" source="0PZKCsLCNUDsqm-1jIu7-15" target="0PZKCsLCNUDsqm-1jIu7-28">
          <mxGeometry relative="1" as="geometry" />
        </mxCell>
        <mxCell id="0PZKCsLCNUDsqm-1jIu7-34" style="edgeStyle=orthogonalEdgeStyle;rounded=0;orthogonalLoop=1;jettySize=auto;html=1;entryX=0;entryY=0.5;entryDx=0;entryDy=0;entryPerimeter=0;exitX=0.5;exitY=0;exitDx=0;exitDy=0;exitPerimeter=0;" edge="1" parent="1" source="0PZKCsLCNUDsqm-1jIu7-15" target="0PZKCsLCNUDsqm-1jIu7-30">
          <mxGeometry relative="1" as="geometry" />
        </mxCell>
        <mxCell id="0PZKCsLCNUDsqm-1jIu7-35" style="edgeStyle=orthogonalEdgeStyle;rounded=0;orthogonalLoop=1;jettySize=auto;html=1;exitX=1;exitY=0.21;exitDx=0;exitDy=0;exitPerimeter=0;" edge="1" parent="1" source="0PZKCsLCNUDsqm-1jIu7-15" target="0PZKCsLCNUDsqm-1jIu7-31">
          <mxGeometry relative="1" as="geometry" />
        </mxCell>
        <mxCell id="0PZKCsLCNUDsqm-1jIu7-15" value="Document API&lt;br&gt;Gateway" style="outlineConnect=0;dashed=0;verticalLabelPosition=bottom;verticalAlign=top;align=center;html=1;shape=mxgraph.aws3.api_gateway;fillColor=#D9A741;gradientColor=none;" vertex="1" parent="1">
          <mxGeometry x="490" y="311" width="76.5" height="93" as="geometry" />
        </mxCell>
        <mxCell id="0PZKCsLCNUDsqm-1jIu7-19" style="edgeStyle=orthogonalEdgeStyle;rounded=0;orthogonalLoop=1;jettySize=auto;html=1;entryX=0.011;entryY=0.512;entryDx=0;entryDy=0;entryPerimeter=0;" edge="1" parent="1" source="0PZKCsLCNUDsqm-1jIu7-16" target="0PZKCsLCNUDsqm-1jIu7-18">
          <mxGeometry relative="1" as="geometry" />
        </mxCell>
        <mxCell id="0PZKCsLCNUDsqm-1jIu7-16" value="Doc Read Service" style="html=1;strokeColor=none;fillColor=#0079D6;labelPosition=center;verticalLabelPosition=middle;verticalAlign=top;align=center;fontSize=12;outlineConnect=0;spacingTop=-6;fontColor=#FFFFFF;sketch=0;shape=mxgraph.sitemap.services;" vertex="1" parent="1">
          <mxGeometry x="620" y="431" width="120" height="70" as="geometry" />
        </mxCell>
        <mxCell id="0PZKCsLCNUDsqm-1jIu7-20" style="edgeStyle=orthogonalEdgeStyle;rounded=0;orthogonalLoop=1;jettySize=auto;html=1;entryX=0.011;entryY=0.48;entryDx=0;entryDy=0;entryPerimeter=0;" edge="1" parent="1" source="0PZKCsLCNUDsqm-1jIu7-17" target="0PZKCsLCNUDsqm-1jIu7-18">
          <mxGeometry relative="1" as="geometry" />
        </mxCell>
        <mxCell id="0PZKCsLCNUDsqm-1jIu7-17" value="Write Service" style="html=1;strokeColor=none;fillColor=#0079D6;labelPosition=center;verticalLabelPosition=middle;verticalAlign=top;align=center;fontSize=12;outlineConnect=0;spacingTop=-6;fontColor=#FFFFFF;sketch=0;shape=mxgraph.sitemap.services;" vertex="1" parent="1">
          <mxGeometry x="620" y="519" width="120" height="70" as="geometry" />
        </mxCell>
        <mxCell id="0PZKCsLCNUDsqm-1jIu7-18" value="Mongo DB" style="sketch=0;aspect=fixed;html=1;points=[];align=center;image;fontSize=12;image=img/lib/mscae/Database_General.svg;" vertex="1" parent="1">
          <mxGeometry x="820" y="482" width="38" height="50" as="geometry" />
        </mxCell>
        <mxCell id="0PZKCsLCNUDsqm-1jIu7-25" style="edgeStyle=orthogonalEdgeStyle;rounded=0;orthogonalLoop=1;jettySize=auto;html=1;" edge="1" parent="1" source="0PZKCsLCNUDsqm-1jIu7-21" target="0PZKCsLCNUDsqm-1jIu7-23">
          <mxGeometry relative="1" as="geometry" />
        </mxCell>
        <mxCell id="0PZKCsLCNUDsqm-1jIu7-21" value="Authentication /&lt;br&gt;Authorization&lt;br&gt;Service" style="fillColor=#28A8E0;verticalLabelPosition=bottom;sketch=0;html=1;strokeColor=#ffffff;verticalAlign=top;align=center;points=[[0.145,0.145,0],[0.5,0,0],[0.855,0.145,0],[1,0.5,0],[0.855,0.855,0],[0.5,1,0],[0.145,0.855,0],[0,0.5,0]];pointerEvents=1;shape=mxgraph.cisco_safe.compositeIcon;bgIcon=ellipse;resIcon=mxgraph.cisco_safe.capability.identity_authorization;" vertex="1" parent="1">
          <mxGeometry x="577" y="114" width="43" height="43" as="geometry" />
        </mxCell>
        <mxCell id="0PZKCsLCNUDsqm-1jIu7-23" value="" style="outlineConnect=0;dashed=0;verticalLabelPosition=bottom;verticalAlign=top;align=center;html=1;shape=mxgraph.aws3.mysql_db_instance;fillColor=#2E73B8;gradientColor=none;" vertex="1" parent="1">
          <mxGeometry x="690" y="104" width="60" height="64.5" as="geometry" />
        </mxCell>
        <mxCell id="0PZKCsLCNUDsqm-1jIu7-36" style="edgeStyle=orthogonalEdgeStyle;rounded=0;orthogonalLoop=1;jettySize=auto;html=1;entryX=1;entryY=0.5;entryDx=0;entryDy=0;entryPerimeter=0;exitX=0.5;exitY=0;exitDx=0;exitDy=0;exitPerimeter=0;" edge="1" parent="1" source="0PZKCsLCNUDsqm-1jIu7-28" target="0PZKCsLCNUDsqm-1jIu7-23">
          <mxGeometry relative="1" as="geometry" />
        </mxCell>
        <mxCell id="0PZKCsLCNUDsqm-1jIu7-28" value="Payment Sevice" style="html=1;strokeColor=none;fillColor=#0079D6;labelPosition=center;verticalLabelPosition=middle;verticalAlign=top;align=center;fontSize=12;outlineConnect=0;spacingTop=-6;fontColor=#FFFFFF;sketch=0;shape=mxgraph.sitemap.services;" vertex="1" parent="1">
          <mxGeometry x="782" y="323" width="120" height="70" as="geometry" />
        </mxCell>
        <mxCell id="0PZKCsLCNUDsqm-1jIu7-32" style="edgeStyle=orthogonalEdgeStyle;rounded=0;orthogonalLoop=1;jettySize=auto;html=1;" edge="1" parent="1" source="0PZKCsLCNUDsqm-1jIu7-30" target="0PZKCsLCNUDsqm-1jIu7-23">
          <mxGeometry relative="1" as="geometry" />
        </mxCell>
        <mxCell id="0PZKCsLCNUDsqm-1jIu7-30" value="User Read Sevice" style="html=1;strokeColor=none;fillColor=#0079D6;labelPosition=center;verticalLabelPosition=middle;verticalAlign=top;align=center;fontSize=12;outlineConnect=0;spacingTop=-6;fontColor=#FFFFFF;sketch=0;shape=mxgraph.sitemap.services;" vertex="1" parent="1">
          <mxGeometry x="572" y="240" width="120" height="69" as="geometry" />
        </mxCell>
        <mxCell id="0PZKCsLCNUDsqm-1jIu7-33" style="edgeStyle=orthogonalEdgeStyle;rounded=0;orthogonalLoop=1;jettySize=auto;html=1;" edge="1" parent="1" source="0PZKCsLCNUDsqm-1jIu7-31" target="0PZKCsLCNUDsqm-1jIu7-23">
          <mxGeometry relative="1" as="geometry" />
        </mxCell>
        <mxCell id="0PZKCsLCNUDsqm-1jIu7-31" value="Signup Sevice" style="html=1;strokeColor=none;fillColor=#0079D6;labelPosition=center;verticalLabelPosition=middle;verticalAlign=top;align=center;fontSize=12;outlineConnect=0;spacingTop=-6;fontColor=#FFFFFF;sketch=0;shape=mxgraph.sitemap.services;" vertex="1" parent="1">
          <mxGeometry x="703" y="240" width="120" height="69" as="geometry" />
        </mxCell>
      </root>
    </mxGraphModel>
  </diagram>
</mxfile>
